<svg xmlns="http://www.w3.org/2000/svg" viewBox="0 0 256 256" fill="currentColor">
  <path d="M127.5 6.1C58.9 6.1 3.1 61.9 3.1 130.5c0 46.7 25.8 87.4 63.9 108.5l35.1-14.5c-2.2-1.2-4.1-2.7-5.7-4.5-5.4-6.2-8.1-14.2-7.7-22.5.8-16.6 14.7-29.5 31.3-29.2 8 .2 15.4 3.4 20.6 8.8l50.8-20.9c0-.4 0-.8 0-1.2 0-34.3-27.9-62.2-62.2-62.2s-62.2 27.9-62.2 62.2c0 3.1.2 6.1.7 9.1l42.1-17.4c-1.3-7.4 1-15.1 6.4-20.6 5.4-5.5 12.9-8.1 20.6-7.1 15.4 2.1 26.3 16.2 24.4 31.6l51-21.1c16.8-13.3 27.7-33.8 27.7-56.8C191.7 61.9 135.9 6.1 127.5 6.1z"/>
  <circle cx="165.7" cy="92.8" r="31.2"/>
</svg>
